<svg width="136" height="70" viewBox="0 0 136 70" fill="none" xmlns="http://www.w3.org/2000/svg">
<path d="M68.3973 66.4592C70.4458 66.4592 72.0123 65.4953 72.9763 63.4467C73.5004 61.8398 73.4718 60.9059 72.675 59.169L71.1538 56.3373C69.9638 54.4093 67.1923 53.4453 64.7823 54.7129L57.0704 59.7419C56.1064 60.5548 55.6244 61.5188 55.6244 62.7238C55.6244 64.5313 56.9499 66.2183 59.1189 66.4592H68.3973Z" fill="#fff"/>
<path d="M45.0205 5.9686L57.1909 29.1045C58.5164 32.7195 57.4319 37.6599 52.3709 39.4674C47.5509 41.0339 44.418 37.6599 44.418 37.6599C42.8515 35.9729 42.731 35.009 41.6465 33.081C38.393 28.3815 32.9705 28.6225 29.7171 30.671C25.4996 33.804 24.6561 39.7084 28.3916 43.5644C29.6201 44.8258 31.2835 45.9744 33.6935 46.2154C34.296 46.3359 35.6215 46.2154 36.5855 45.9744L135.154 16.8136L16.4621 69.1102C7.9067 72.8457 -3.29972 64.2903 0.917755 53.3248L24.1741 6.08912C29.958 -2.94832 41.044 -1.02031 45.0205 5.9686Z" fill="#fff"/>
<defs>
<linearGradient id="paint0_linear" x1="29.9581" y1="-5.59927" x2="60.8058" y2="58.8678" gradientUnits="userSpaceOnUse">
<stop stop-color="#fff"/>
<stop offset="0.586603" stop-color="#fff"/>
<stop offset="0.921506" stop-color="#fff"/>
</linearGradient>
</defs>
</svg>
